<?xml version="1.0" standalone="no"?>
<!DOCTYPE svg PUBLIC "-//W3C//DTD SVG 20010904//EN"
 "http://www.w3.org/TR/2001/REC-SVG-20010904/DTD/svg10.dtd">
<svg version="1.0" xmlns="http://www.w3.org/2000/svg"
 width="260.000000pt" height="260.000000pt" viewBox="0 0 260.000000 260.000000"
 preserveAspectRatio="xMidYMid meet">
<metadata>
Created by potrace 1.11, written by Peter Selinger 2001-2013
</metadata>
<g transform="translate(0.000000,260.000000) scale(0.100000,-0.100000)"
fill="#000000" stroke="none">
<path d="M933 2568 c-21 -18 -40 -37 -42 -43 -1 -5 -12 -15 -24 -22 -15 -8
-17 -13 -7 -13 9 -1 6 -5 -7 -10 -13 -5 -23 -16 -23 -25 0 -8 -4 -15 -10 -15
-5 0 -30 -20 -55 -44 -25 -24 -45 -41 -45 -38 0 4 -5 -1 -11 -10 -5 -10 -10
-20 -9 -23 0 -10 -35 -42 -42 -38 -5 2 -8 -3 -8 -11 0 -10 -6 -13 -15 -10 -8
4 -15 1 -15 -5 0 -6 -40 -51 -90 -100 -49 -50 -90 -94 -90 -100 0 -6 -6 -8
-14 -5 -9 3 -19 -6 -27 -25 -8 -17 -22 -31 -31 -31 -9 0 -20 -5 -24 -12 -5 -7
-3 -8 7 -2 10 6 10 2 -2 -16 -9 -14 -21 -25 -27 -25 -6 0 -25 -16 -42 -35 -18
-19 -36 -34 -42 -32 -5 1 -7 -2 -4 -7 7 -10 -18 -33 -27 -26 -4 3 -5 2 -2 -1
5 -8 -20 -34 -34 -34 -6 0 -10 -3 -9 -7 3 -12 -23 -55 -29 -49 -3 3 -17 -7
-31 -22 -13 -15 -21 -21 -17 -13 6 9 4 12 -3 7 -7 -4 -12 -14 -12 -22 0 -8 -5
-12 -10 -9 -6 3 -10 1 -10 -5 0 -13 -30 -46 -30 -33 0 4 -5 1 -10 -7 -6 -9
-10 -316 -10 -793 0 -845 -2 -819 55 -845 20 -9 324 -12 1256 -12 l1231 0 29
29 29 29 0 1232 c0 1338 3 1272 -55 1298 -19 9 -221 12 -800 12 l-773 0 -39
-32z m787 -593 l0 -85 -330 0 -330 0 0 -245 0 -245 315 0 315 0 0 -85 0 -85
-315 0 -315 0 0 -260 0 -260 330 0 330 0 0 -85 0 -85 -415 0 -415 0 0 760 0
760 415 0 415 0 0 -85z"/>
</g>
</svg>
