<?xml version="1.0" standalone="no"?>
<!DOCTYPE svg PUBLIC "-//W3C//DTD SVG 20010904//EN"
 "http://www.w3.org/TR/2001/REC-SVG-20010904/DTD/svg10.dtd">
<svg version="1.0" xmlns="http://www.w3.org/2000/svg"
 width="260.000000pt" height="260.000000pt" viewBox="0 0 260.000000 260.000000"
 preserveAspectRatio="xMidYMid meet">
<metadata>
Created by potrace 1.11, written by Peter Selinger 2001-2013
</metadata>
<g transform="translate(0.000000,260.000000) scale(0.100000,-0.100000)"
fill="#000000" stroke="none">
<path d="M1395 2581 c-4 -12 -12 -18 -21 -14 -9 3 -14 -1 -14 -12 0 -9 -3 -14
-7 -12 -5 3 -21 -9 -38 -25 -16 -17 -23 -27 -15 -23 8 5 -2 -7 -23 -27 -20
-19 -34 -38 -30 -43 5 -4 1 -6 -7 -3 -16 6 -43 -16 -33 -26 4 -3 -1 -6 -10 -6
-9 0 -17 -6 -17 -14 0 -7 -9 -16 -20 -19 -11 -3 -20 -11 -20 -19 0 -7 -10 -20
-22 -28 -13 -8 -39 -32 -59 -53 -31 -32 -45 -39 -90 -43 -97 -10 -191 -70
-205 -131 -4 -16 -11 -33 -16 -40 -5 -6 -11 -36 -13 -67 -4 -61 -11 -80 -26
-71 -5 4 -9 -3 -9 -14 0 -14 -5 -19 -15 -14 -9 3 -15 2 -14 -3 5 -19 -14 -44
-33 -44 -14 0 -18 -5 -14 -15 3 -9 -3 -19 -16 -26 -12 -6 -31 -22 -43 -35 -12
-13 -28 -24 -34 -24 -7 0 -10 -4 -7 -9 3 -4 -6 -13 -19 -19 -14 -7 -25 -16
-25 -21 0 -12 -67 -81 -72 -75 -3 2 -11 -7 -18 -21 -7 -13 -21 -27 -32 -31
-10 -3 -18 -10 -18 -16 0 -6 7 -5 18 3 15 13 16 12 3 -4 -7 -9 -20 -16 -29
-15 -8 2 -17 -3 -20 -11 -3 -9 0 -11 8 -6 9 5 11 4 6 -4 -4 -6 -12 -9 -17 -6
-5 4 -9 0 -9 -7 0 -10 -2 -10 -8 0 -6 8 -13 1 -22 -23 -8 -19 -18 -35 -23 -35
-10 0 -37 -26 -39 -37 -2 -15 -52 -62 -60 -57 -10 7 -39 -21 -31 -30 4 -3 1
-6 -5 -6 -6 0 -14 -9 -17 -20 -4 -11 -10 -18 -15 -15 -5 3 -15 -2 -22 -11 -7
-9 -23 -27 -36 -41 l-23 -24 3 -452 3 -452 27 -55 c37 -75 85 -128 149 -167
110 -66 74 -64 1146 -61 l969 3 76 37 c91 45 147 103 191 196 l32 67 0 980 c0
1084 3 1028 -66 1135 -43 67 -108 119 -189 152 -54 22 -65 23 -497 26 -432 2
-442 2 -448 -17z m-55 -65 c0 -3 -4 -8 -10 -11 -5 -3 -10 -1 -10 4 0 6 5 11
10 11 6 0 10 -2 10 -4z m380 -541 l0 -85 -330 0 -330 0 0 -245 0 -245 315 0
315 0 0 -85 0 -85 -315 0 -315 0 0 -260 0 -260 330 0 330 0 0 -85 0 -85 -415
0 -415 0 0 760 0 760 415 0 415 0 0 -85z"/>
</g>
</svg>
